<?xml version="1.0" encoding="utf-8"?>
<!-- Generator: Adobe Illustrator 24.0.1, SVG Export Plug-In . SVG Version: 6.00 Build 0)  -->
<svg version="1.1" id="JvSAD" xmlns="http://www.w3.org/2000/svg" xmlns:xlink="http://www.w3.org/1999/xlink" x="0px" y="0px"
	 viewBox="0 0 934.9 883.2" style="enable-background:new 0 0 934.9 883.2;" xml:space="preserve">
<style type="text/css">
	.st0{fill:#00FF00;}
</style>
<title>1jv_wallpaper</title>
<g id="Logo">
	<g id="logo-2">
		<g id="cross">
			<path class="st0" d="M426.8,529.1c-0.7,2.9-1.6,7.7-3.8,8.5c-3.8,1.1-7.8,0.6-11.2-1.3c-5.1-3.2-6.3,1.1-8.6,3.2
				c-0.7,0.6-0.7,3.2,0,4s3.6,1.5,3.9,1c2.2-2.9,5-3.3,8.2-2.9c0.9,0.3,1.8,0.7,2.6,1.2c-0.5,0.8-1,1.5-1.7,2.2
				c-3.9,3.3-7.8,6.5-13.4,2.9c-1.1-0.7-4.5-0.2-2,2.8s2.5,9.2,0.1,9c-8.8-0.6-8.6,6-11.1,10.9c-0.5,1-2.2,1.6-3.4,2.1
				c-2.2,0.9-4.6,1.4-6.7,2.5c-4,2.2-0.4,3.7,0.7,5.4c-3.2,1-5.7,5.1-9.6,2.6c-2.6-1.6-4.8-2.1-5.7,1.3c-0.2,1,1.7,3.3,3,3.7
				c2.4,0.8,3.9,1.2,1.1,3.2c-1.1,0.8-3.8,0.7-3.9,1.4c-2,11-4.5,0.2-6.7,0.2c0-1.6,0-3.1-0.1-8.1c-1.6-2.3-2.2-1.7-2.9-1.2l4.5,4.6
				c0.6-1.2,1.8-2.7,1.5-3.6c-0.5-1.3-2.1-2.3-3.1,0.1c-5.6,4.7-3.7,9.7-2.3,11.5c3.7,4.6,1.2,4.4-2.4,4.4c-1.5,0-3.1,0-3.9-1.1
				c-0.5-2.7-1.5-5.3-2.8-7.7l-6.9,4.4c2,1.5,3.8,3.2,6,4.2c0.8,0.4,2.4-1.1,3.7-0.9c0.4,3.2,2.9,6.2,2.2,7.2
				c-2.3,3.5-5.6,6.5-8.7,9.4c-0.4,0.3-1.9-0.2-2.7-0.6c-3.8-2.1-3.8-2.1-4,2.3c0,0.5,0,1,0,1.5l-4.8-3c-0.4,1.7-0.6,3.5-0.6,5.3
				c0.1,1.1,0.9,2.2,1.4,3.3l-7.5,3.3c-0.4-1.4-0.8-2.8-1-4.2c-0.2-2.1,0.1-4.1,0.9-6.1c0.3-0.9-0.3-0.4-0.9,0l1.4,1.4
				c0.5-0.6,1-1.2,1.4-1.9c0.1-0.1-0.6-0.6-1.9,0.4c-2.9,4-5,6.4-6.8,9c-0.8,1.1-0.6,3.9-1.2,4c-11.1,2-7.8,8.7-5.5,15.4
				c0.4,1.1-0.8,2.7-1.3,4.1c-0.6-1.7-1.4-3.3-2.3-4.9c-0.4-0.7-1.7-0.8-2.6-1.2c0.1-1,0.1-2,0-3c-0.2-0.9-0.6-1.8-1-2.7
				c-0.8,0.8-1.5,1.7-2,2.7c-0.3,0.9-0.1,2,0.7,4.3c-1.2-0.4-2-1.3-2.3-1.2c-3.2,1-6.4,2-9.5,3.3c-0.4,0.2-0.6,1.4-0.6,2.1
				c0,0.2,0.8,0.8,1.2,0.7c4-1,7.9-2.6,11.3-4.9c0.2-1.3,1.3-1.3,2.3-1.3c1.1,7.7-6.3,9.7-9.8,14.4c-2.3,3.1-5.4,7-6.5-0.9
				c0,0-1.8-0.1-2,0.3c-0.9,1.7-5.2,2.2-1.7,5.5c0.9,0.9,0.2,3.4,0.3,5.1c-11.2-1.2-7.8,7-8.4,12.8c-0.4,3.5-7.7,6.3-12.4,4.8
				c-0.1,0,0-1,0-1.5c1.4-1.4,2.8-3,4-4.6c0.3-1-0.3-0.4-0.9,0l1.4,1.4c0.5-0.6,1-1.2,1.4-1.9c0.1-0.1-0.6-0.6-1.9,0.4
				c-1.2,1.6-2.6,3.1-4,4.6l-9.4,3.1c-1.1-1.3-2.6-2.2-4.2-2.5c0.2-1,1.1-1.6,1-2.1c-0.1-1.4-0.4-2.7-0.7-4c-0.7,0.2-2,0.4-2,0.5
				c0,2,0.5,3.9,1.7,5.6c1.7,0.3,3.1,1.2,4.2,2.5c-0.2,4,1.5,9.9-3.4,10.7c-6.1,1-11,7.6-18,3.9c-1.1-0.4-2.2-0.8-3.3-0.9
				c-0.1,1-0.7,2.5-0.3,2.9c5.2,5,3.2,9.8-0.1,14.7c-6.5-2.8-18.3-1.3-23.2,3c-0.5,0.7-1,1.4-1.3,2.2c0.8,0.5,1.7,0.8,2.7,1.1
				c3.1,0.1,6.2,0,9.4,0c0.4,4.8-10.2,2.4-6.4,9.7c0.2,0.4-2.2,2.8-2.5,2.6c-7-3.4-5.4,7-11.3,6.8c-2.9-0.1,0.7,2.5,1,3.9
				s-0.2,2.8-0.3,4.2c-1.8-0.2-4.3,0.3-5.2-0.7c-2.6-2.9-4.8-6.2-6.4-9.8c-1.2-3,0.8-4.5,4.2-4.6c0.5,0,1-3.2,1.5-4.8
				c-1.1,0.3-2.2,0.6-3.3,1c-3.2,1.2-7.2,1.8-5.6,6.7c3.3,10.8-9.5,13.6-10.7,22.1c-1.4-0.2-2.8-0.3-4.2-0.7
				c-1.1-0.3-2.2-0.7-3.3-1.2c-0.3,0.9-0.5,1.9-0.4,2.9c0.3,0.9,0.9,1.8,1.7,2.4c2.4,2.4,1.5,4.3-0.4,6.5c-1.2,1.4-1.6,3.5-2.3,5.3
				c-1.4-2.2-2.9-4.3-4.5-6.3c-0.7-0.8-2.2-1.1-3.2-1.6c-0.2,1.4-0.3,2.8-0.1,4.2c0.3,1.2,1.3,2.2,2,3.3c-1.4,0.3-2.9,1-4.2,0.7
				c-2.2-0.5-5.1-3-6.3-2.2c-2.9,1.7-0.4,3.9,0.5,6.3c2.1,5.3-2.6,9.7-3.3,14.8c-1.6-1-3.2-1.9-6.2-6.1c-1.9-3.1-2.4-3.2-2.9-3.1
				c-1.6,0.6-3.2,1.2-4.8,1.8c2,1.5,3.8,3.3,6,4.3c3.4,1.6,3.2-2.8,5.3-3.7c-1.1-0.8-2.2-1.7-3.3-2.4c-0.4-0.2-1,0-0.2,3.1
				c1.3,6.8,1.5,10.4,1.3,14c-0.1,1.7,0.8,6.8-3,2.7c-2.4-2.6-7,6.7-6.4-1.9c0-1.9-0.6-3.8-1.6-5.5c-0.6-1.2-2.1-1.9-3.2-2.8
				c-0.2,1.8-0.3,3.5-0.3,5.3c0.2,1.1,0.6,2.3,1.1,3.3c-1,0.2-2.1,0.7-2.9,0.4c-2.7-0.9-5.3-2.6-8.1-2.9c-3.7-0.5-4.4-2.7-3.1-5.1
				c4.5-8,8.6-16.6,14.4-23.6c7.4-8.6,14-17.9,19.6-27.8c1.4-2.6,5.3-3.7,7.4-6.1s3.5-5.9,5.7-8.5c3.4-3.9,9.2-6.9,10.5-11.2
				c1.6-5.6,6.8-5,9.2-8.5c3.1-4.5,6.5-8.8,9.9-13.1c3.1-3.8,8.6-6.2,7.2-12.7c0.1-1,0.7-1.8,1.6-2.2c10-1.1,10.2-11.6,16-16.9
				c2.3-2.1,2.6-6.1,7.2-5.2c0.8,0.2,2.5-0.5,2.6-1c0.8-9.3,11.5-12.2,13.2-20.8c1.2-1.4,2.9-2.3,4.7-2.7c2.5-0.4,4.9-1.3,7.2-2.6
				l-4.4-6.9c-1.5,2.5-3,5-4.2,7.6c-0.1,0.2,1.7,1.3,1.5,1.9c-1.8,0.4-3.5,1.3-4.7,2.7c-5.1-1.4-7.1,3-10.2,5.4
				c-0.9,0.7-3.2,1-4,0.3c-1-1-1.5-2.5-1.2-3.9c1-2.7,2.2-6.8,4.2-7.3c9.8-2.8,11.9-13.8,20.3-17.9c2.8-1.4,3.9-6,6.6-7.9
				c10-7,14.8-18.8,25.8-25.2c8.5-5,16.6-12.5,19.8-22.3c2-6.1,7.7-6.9,10.5-11c12.8-19.3,29.7-34.8,45.9-51c2-1.9,4.8-3,7.2-4.5
				c-2.1-1.7-3.6-3.1-0.5-5.6c1.3-1.1,1.1-4,2.4-5.1c4.4-3.9,9.2-7.5,13.9-11.2c-2.7-7.4,4.5-10.9,7.2-15.6
				c4.3-7.4,11.9-12.8,18.2-19c2.4-2.3,4-4.3,1-7.6c-2.7-3,0.7-2.2,2-3c7.7-4.9,7-4.7,1.6-12.3c-9.7-13.6-22.7-23.3-36-32.8
				c-3.3-2.4-6.9-5.3-8.7-8.8c-2.9-6-7.6-8-13.5-8.5c-1.2-4.9-4.5-6.8-9.4-6.2c-0.3-1.9,0-4.4-1.1-5.5c-8-8.4-16.2-16.6-24.6-24.6
				c-1.2-1.1-3.7-0.8-6.2-1.1h0.7c-0.2-0.8-0.5-1.6-0.9-2.4c-0.2-0.2-1.2,0.3-1.9,0.5c0.5,0.8,1.3,1.4,2.1,1.8
				c-0.1,1-0.8,2.8-1.8,2.9c-1.5,0-2.9-0.6-3.9-1.6c-12.7-12.4-24.7-25.5-39.1-36c-4.5-3.3-6-9.2-11.7-12.2
				c-5.3-2.7-8.9-8.5-13.4-12.8c-24.3-23.4-48.7-46.7-73.1-70c-1.9-1.8-3.5-3.8-5.5-5.5c-3.5-2.9-5.6-6.7-3-10.4
				c1.1-1.6,5.6-0.9,23.9,15.5c15,16,14.9,15.2,14.5,14.6c-3.3-4.2-6-11.1-10.2-12.1c-8-2-5.7-8.5-8.4-12.6c-1-1.5-3-2.5-4.7-3.5
				c-2.1-1.2-4.3-2.1-6.5-3.2c-0.6,3.1,0.7,6.2,3.3,8c2.1,1.5,5.3,3.7,5.3,5.4c-0.3,8.9,8.5,9.8,12.3,15c1.7,2.4,4.4,4.1,6.9,5.8
				c0.5,0.4,1.8-0.4-12.4-17.5c-20-22.7-25.6-27.8-30.8-33.4c-3.4-3.6-3.4-7.2-3.2-11.2c0.3-5.5,2.3-1.5,4.3-0.8
				c1.4,0.5,3.4-0.6,5-1.4c0.3-0.2,0.2-2.7-0.2-2.8c-10.1-3.7-9.2-15.1-14.9-21.9c-2-2.3,0.6-8.2-5.6-8.3c-0.7-0.6-1.1-1.6-1-2.5
				c3.1-5.6,2.3-8.7-4.7-9.6c-1.8-0.2-4.2-3.5-4.5-5.6c-0.6-3.9-2.9-3.5-5.4-3.5c-6.9,0-1.2-4.3-1.4-4.5c-3.8-4-7.5-8.6-12.3-10.9
				c-12-5.6-11.3-5.4-12.7-17.3c-1.4-12.3,5.1-21.9,7.9-32.8c0.9-3.5-0.7-7.2,3.6-10.2c5.2-3.6,4.8-4.5,11.2-0.3
				c3,1.9,4.6,0.8,6.5-1.3c4.9-5.4,10.2-5.6,16-1.4c3.2,2.3,6.5,4.4,9.7,6.6c3.6-5,5.2,0.2,7.8,1.4c4.8,2.2-0.6,6.2,1.6,7.7
				s5.6,1.4,8.3,2.5s7.2,2.9,7.2,4.3c0,9.2,9,8.5,13.2,12.8c1,1,2.3,2.3,3.6,2.6c8.7,1.9,3.4,13.7,10,15.3c8.2,2.1,11.2,5.9,13,14.1
				c1.2,5.6,7.4,10.2,11.3,15.2c2.4,3.1,4.8,6.3,6.9,9.7s2.8-0.1,4.2-0.6c2.6-1,4.2-1,5.4,2.6c2.2,6.5,5.8,11.5,12.8,15
				c7.6,3.7,13.8,9.9,15.5,19.6c0.6,3.2,7.6,5.1,8.6,8.5c1.6,5.6,6.3,5.9,9.8,8.2c4.8,3.1,5.3,3.9,6.9,12c0.4,2.2,1.4,5.6,5.4,4
				c1.1-0.2,2.2-0.3,3.3-0.2v4.7c-0.8,0.2-1.6,0.5-2.4,0.9c-0.2,0.2,0.3,1.2,0.5,1.9c0.8-0.6,1.4-1.3,1.8-2.1
				c2.3,1.4,4.4,3.2,6.2,5.1c0.8,0.9,1.6,3.1,1.9,3.1c1.6-0.5,3.7-5.3,4.3,0.5c0.5,4.2-3.2,2.6-5.4,3.2c-1.3,0.4-2.5,1-3.7,1.7
				c0.8,0.5,1.7,1.3,2.5,1.4c7.9,0.5,14.2,3,16.9,11.5c0.5,1.6,4.1,2.2,6.2,3.4c2.9,1.7,5.7,3.6,8.6,5.4c3.3,2.1,3,4.3,0.3,6.6
				c0.7,0.8,1.4,1.5,2.2,2.2c4.3,3.3,11,5.8,12.4,10c2.4,7,7.1,6.9,12,8.9c1.5,0.6,10.4,2.8,4.8,9.3c4.2,2.8,8.2,7.1,12.8,7.9
				c7.1,1.3-5.7,7,2,6.5c3.6-0.5,7.1,1.2,9.2,4.2c2,2.8,4.7,5.5,5.3,8.6c1.3,6.5,10,5.9,11,13v-0.7c-0.8,0.2-1.6,0.5-2.4,0.9
				c-0.2,0.2,0.3,1.2,0.5,1.9c0.8-0.5,1.5-1.2,1.9-2c2.3,1.1,4.6,3,7,4.7c3.6,2.4,1,3.8-0.7,5.5c0,0,0.7,1,0.9,1
				c8.9-1,9.6,8.3,14.8,11.8c4.8,3.3,9.3,6.9,13.8,10.6c3.4,2.9,1,5.1-1.1,7.5c-0.6,0.8,0.1,2.7,0.2,4.1c1.1-0.5,2.2-1.1,3.3-1.5
				c5.4-2.1,6.9,1.8,9.1,6.5c-1.2,0.1-2.4-0.9-3.5-0.9s-2,1.1-3,1.7l4.1,4.1c1.2-1.4,2-3.1,2.4-4.9c6.8,1.5,9,10.8,17.3,12.4
				c1.6,0.3,2.6,2.6,4.5,0.2c3.8-4.7,7.6-9.6,12.1-13.7c4.1-3.8,8.6-6.7,11.1-12.3c2.4-5.3,6.5-10.2,10.9-14.1s5.8-9.6,11.6-12.5
				c3.5-1.7,5.1-7,7.9-10.5c2.6-3.1,5.9-5.3,5.4-10.4c-0.2-1.8,2.5-4.5,4.5-5.7c8.9-5,15.5-12.1,20.9-20.8c2.4-3.9,6.7-6.5,9.7-10.1
				c3.5-4,9.6-6.6,8.5-13.7c-0.1-0.6,2-2.3,3-2.2c5.4,0.2,7-3.2,9.7-7.4c4-6.4,10.3-11.6,16-16.8c7.2-6.5,12.3-14.6,18-22.2
				c1.7-2.4,3.5-4.8,5.1-7.2c2-3,3.8-2.3,5.5,0.2c1.1-2,2.1-4,3.3-5.9c2.5-3.7,4.7-7.7,7.8-10.8c4.6-4.6,8.2-10.6,15.2-12.2
				c-0.6-8.5,6.6-12,11-17.3c4.2-5,8.2-10.1,12.1-15.2c3-3.9,5.6-8.2,8.9-11.9c3.1-3.4,4.4-8.5,9.6-9.9c1-0.4,1.8-1.2,2.2-2.2
				c3.2-11.2,13.7-16.8,19.8-25.9c3-4.5,5.8-9.7,10-12.9c9.5-7.3,17.9-15.8,25-25.4c3.7-5,9.4-7.9,13.8-12.1
				c3.8-3.7,12.1-2.7,18.5-3.6c5.1-0.8,12.2,0.3,16.9,1.9c4.1,1.4,8.4,2.2,12.6,3.4c1.3,0.4,18.3,15.2,19.5,16.3
				c2.7,2.2-0.4,3-0.8,4.5c-1.1,5.2-8,10.3-0.8,16.1c0.5,0.4,0,3.4-0.8,4c-8,5.5-10.6,17-21.3,19.5c-1.2,0.5-2.2,1.6-2.6,2.9
				c-3.6,10.7-12.3,17.2-19.9,24.5c-7.3,6.9-13,15.7-22.7,20.3c-3,1.4-4.3,6.5-6.8,9.4c-3.4,3.9-6.7,9.4-11.1,10.6
				c-6.6,1.8-5.1,7.7-8.2,10.8c-3.5,3.5-7.2,6.7-11.2,9.6c0.1-0.8,1.8-1.6,1.7-2.1c-0.5-1.7-1.1-3.3-1.9-4.8c-1.4,0.9-3.4,1.5-4,2.8
				c-0.4,0.9,1.2,2.7,4.2,4.1c1.5,1.3,1.4,4.8,0.7,4.9c-5.1,0.9-9.3,4.5-11,9.3c-1.4,4.5-10.1,4.1-6.7,11c0.2,0.4-0.9,1.8-1.6,2.3
				c-9.5,6.5-12.6,18.7-23.6,24.6c-6.7,3.6-10.3,12.8-15.2,19.7c-1.5,2.1-5.5,7.7-5.9,7.5c-6.8-4-1.1,6.2-5.5,4.8
				c-1.4,5.6-9.6-0.9-10.6,6c-0.6,3.8-2.2,7.3-3.3,11s-6.4-6.5-6.3,2.1c0,2.2-4.2,4.3-5.7,6.9c-1.6,2.9-2.1,6.4-3.6,9.4
				c-0.5,1-2.6,1-3.8,1.7c-5.8,3.3-13.2,5-12.4,14.5c0.2,2-3.8,5.8-6.3,6.3c-7.9,1.7-10.2,8.2-11.3,13.8c-1.4,7.3-6.7-4.7-6.6,2
				c0.1,5.3-3.5,3.8-8.2,4.6c0.1-0.8,1.8-1.6,1.7-2.1c-0.5-1.7-1.1-3.3-1.9-4.8c-1.4,0.9-3.4,1.5-3.9,2.8c-0.4,0.9,1.2,2.7,4.2,4.1
				c1.8,0.3,3.3,1.5,4.1,3.1c1.5,2.5,1.9,5.1-1.8,5.5s-7.3-0.1-10.9,0.4c-0.5,0.1-0.4,3.9-0.6,6c-5.6-1.6-8.4,2.4-11.7,5.6
				c-4,3.8-0.7,3.4,1.9,3.9c0.5,0.1,1.1,2.3,0.8,2.7c-2,2.4-4.4,4.4-6.4,6.8c-0.4,0.5,0,2.2,0.6,2.8c1.3,1.1,2.7,2.1,4.2,3
				c-1.4,2-2.6,4.3-4.4,5.9c-0.9,0.8-3,0.7-4.4,0.5c-5.3-0.8-7.6,0.7-7.2,6.7c0.1,1.5-4.7,2.8-5.8,5c-3.2,6.6-13,7.3-13.8,15.9
				c0,0.3-2.8,0.4-4.3,0.6c-1,0.1-2.3,0-2.8,0.6c-2.4,2.4-1.4,15.9,1.6,18c4.4,3.1,5.8,8.8,10.4,11.7c3.4,2.2,2.7,8.6,8.7,8.7
				c1.1,0,3.2,2.2,3,3.2c-1.1,8.5,5.5,8.9,10.9,10.8c1.7,0.6,4.6,1.3,4.7,2.2c1.3,10.2,10.7,13.4,16.5,19.7
				c4.4,5.1,8.2,10.7,11.2,16.8c1.4,2.7,2.3,4.1,5.3,5.7c3.5,1.8,7.7,4.8,8.2,10.4c0.2,2.6,2.6,7.1,4.2,7.2
				c8.3,0.5,7.4,11.8,15.1,12.2c4.4,0.3,4.4,4.2,6.6,6.4c5.7,5.9,10.8,12.4,17.1,17.9c8,6.9,13.6,16.5,21.4,23.7
				c11.4,10.6,23.9,20.1,36,29.9c1,0.8,3.7,1.2,4,0.7c3-4.3,5-1.3,6.7,0.9c5.4,6.7,13.5,10.9,16.9,19.5c1,2.6,5.8,3.4,8.2,5.7
				c8.7,8.4,16.5,17.7,23.1,27.7c6.7,10.2,16.8,18.1,25.5,27c2.6,2.6,6.8,4.8,7.4,7.8c1.9,9.4,10.7,14,13.7,22.5
				c2.7,7.4,6.1,14.7,13,19.7c1.7,1.3,2.3,4.2,3.4,6.3c2.5,4.8,0.9,9.8-3.9,9.7c-10.1-0.2-16.7,7.9-25.8,9.8
				c-1.1,0.2-2.5,2.9-2.5,4.4c0.1,5.8,3.3,7.8,10.9,8c6,0.1,8.5,4.8,10.8,9.3c1,2.2,1.7,4.5,2.2,6.9c0.6,2,5.5,2.2,2.5,5.3
				c-0.5,0.5-3.5-1.9-5.1-1.6c-2,0.3-5,1.8-5.3,3.3c-0.7,4.1-0.8,8.2-0.3,12.3c0.3,2.5-2.3,6.5,1.9,7.3c1,0.2,3.1-4.6,4.1-7.3
				c0.7-1.8,0.2-4.1,0.3-6.1c1.1,0.3,2.2,0.4,3.3,0.5c1.8-0.1,4.9-1.2,5.3-0.6c5.3,8.3,5.3,8.3,13.9,14.4c1.2,0.9,1.4,3.2,2,4.8
				c-1.8,0.2-3.6,0.4-5.3,0.4c-0.4,0-0.7-0.7-1.1-1c-5.4-4-8.2-3-8.9,3.3c-0.4,3.6-0.7,5.4,4.4,2.5c5.8-3.2,7.9-0.9,8,5.8
				c0,3.1,0.7,6.5-0.2,9.3c-1.1,3.4-2.6,8.3-8,3c-1.3-1.3-5.1,0.1-7.6-0.3c-1.3-0.4-2.3-1.3-2.7-2.6c0-1.4,0.7-2.7,1.9-3.4
				c2.1-0.8,6.2,0.2,2.1-3.8c-1.3-1.2-2.5-3.7-4.4-0.8c-3,4.6-5.8,4.7-8.9,0c-1.3-1.6-2.8-3.1-4.4-4.4c-0.2-0.2-1-0.2-1,0
				c-0.4,0.9-1.3,2.1-1,2.6c2.8,5.6,6,11.1,8.8,16.7c0.5,1.1-0.1,2.8-0.1,4.2c-1.8-0.1-4.2,0.4-5.2-0.5c-6-5.6-13.8-8.7-18-17.1
				s-12-14.8-18.3-22.1c-19.6-22.7-38.6-45.8-55.3-70.8c-4.2-6.2-9.3-11.9-14.3-17.5c-9.4-10.7-19.2-21.2-28.6-31.9
				c-4.3-4.9-10.1-9.6-11.6-15.4c-1.3-5-6.6-3.7-7.3-7.8s-3-6.2-7.1-6.6c-1-0.2-1.8-0.9-2.2-1.8c-4.3-12.6-16.2-19.5-22.7-30.9
				c-3.8-6.7-9.6-14.4-20-15.1c-2.6-0.2-7-3.1-9.1-8c-3.2-7.5-8.6-14.4-14-20.7c-12.1-13.9-24.9-27.2-37.4-40.7
				c-4.2-4.6-9-8.7-13.2-13.3c-3.5-4.1-6.8-8.4-9.8-12.8c-3.6-5.2-10.2-6.6-13.5-12.8c-3-5.7-9.2-9.8-14-14.5s-9.4-9.7-14.4-14.3
				c-4.6-4.2-13.7-3.6-15.5,2.2c-2,6.6-7.5,5.2-10.9,8c-0.4-0.9-1.4-2.3-1.2-2.6c3.8-4.5-0.6-3.3-2.5-3.6c-2.7-0.3-5-0.2-5.1,3.7
				c0,2.2,3.7,2.2,1.8,6c-2.6,5.2-5.6,9-11.1,10.7c1,5.4-2,9.7-4.7,13.6C433.8,527.5,430.1,527.9,426.8,529.1
				c-0.2-0.6,0.7-1.2,0.6-1.7c-0.2-2.5,0-5.3-1.2-7.2c-0.6-1-3.8-0.6-5.8-0.5c-0.4,0-1.3,2.2-1,2.6
				C421.6,524.9,424,527.2,426.8,529.1z M783.5,766.4c1-1,2.1-2.1,4.1-8.8c-0.3,0.9-1.2,2.1-0.9,2.6c3.2,6,6.6,11.9,10,17.8
				c0.2,0.3,0.7,0.4,1,0.6c0.4-0.8,1.2-1.7,1.3-2.5c0.5-8.3-5.1-13.4-10.4-18.6c-0.2-0.2-0.7,0-2.1,5.7c-1.4,1.3-2.4,2.8-3.1,4.5
				L783.5,766.4c-0.9,0.2-1.7,0.5-2.4,0.9c-0.2,0.2,0.3,1.2,0.5,1.9C782.6,768.6,783.2,767.6,783.5,766.4z M402.5,530.4V529
				c-0.8,0.2-1.6,0.5-2.4,1c-0.2,0.2,0.3,1.2,0.5,1.9c0.6-0.5,1.2-1,3.7-5.7l-1.8,1.5c0.5,0.5,0.9,0.9,1.4,1.4
				c0.5-0.6,1-1.2,1.4-1.9C405.3,527,404.7,526.5,402.5,530.4L402.5,530.4z M723,658.9c-0.7,1.5-1.3,3-1.8,4.6c-0.1,1-0.1,1.9,0,2.9
				c1-0.7,2.7-1.2,3-2.2s-0.4-2.6-3,3.6v-1.4c-0.8,0.2-1.6,0.5-2.4,0.9c-0.2,0.2,0.3,1.2,0.5,1.9C719.8,668.8,720.4,668.3,723,658.9
				L723,658.9z M178.8,737.4c-1.6-1.3-2.2-2.2-2.7-2.2c-1.4,0.1-2.7,0.4-4,0.7c0.2,0.7,0.4,2,0.5,2c1.7,0,3.4-0.2,6.8-10.3
				c-0.7,1.5-1.3,3-1.8,4.6c-0.1,1-0.1,1.9,0,2.9c1-0.7,2.7-1.2,3-2.2S180.1,730.4,178.8,737.4z M261.9,667.6v-4.3l-5.6,4
				c0.7,0.7,1.7,2.2,2.2,2.1c1.4-0.4,2.7-1.4,5.3-13.6c-0.7,1.5-1.3,3-1.8,4.6c-0.1,1-0.1,1.9-0.1,2.9c1-0.7,2.7-1.2,3-2.2
				S264.5,658.6,261.9,667.6L261.9,667.6z M445.9,493.4l-1.5-1.8l-1.4,1.4c0.6,0.5,1.2,1,1.9,1.4c0.1,0.1,0.6-0.6-5.6-1.5
				c2-1.4,3.7-2.2,3.6-2.7c-0.5-1.7-1.1-3.3-1.9-4.8c-1.4,0.9-3.4,1.5-4,2.8C436.7,489,438.3,490.8,445.9,493.4L445.9,493.4z
				 M792.8,750.8c0.3,4.7,3.9,2.7,12.8,11.1c-0.8-2-1.7-3.9-2.9-5.7c-0.8-1.1-2.4-1.5-3.7-2.2c-0.1,1-0.1,2.1,0,3.1
				c0.5,2.3,1.2,4.6,2.2,6.8c0.4,0.9,2.1,1.2,3.2,1.8c0.3-0.9,0.5-1.9-5.5-11.7c-0.3-4.7-3.9-2.7-10-1.9c2-1.4,3.7-2.2,3.6-2.7
				c-0.5-1.7-1.1-3.3-1.9-4.8c-1.4,0.9-3.4,1.5-4,2.8C786.5,748.2,788.1,750,792.8,750.8z M802.5,820.1l2.8-2.1
				c-0.7-0.6-1.5-1.6-2.2-1.6c-1.3,0.2-2.6,0.6-3.8,1.2c0.9,0.7,1.9,1.4,9.1,4.2c-0.5-0.8-1.1-1.6-1.6-2.4c-0.5,0.5-1,1-1.5,1.5
				c-3.8,3.6-4.9,7.6-0.8,11.4c1.4,1.3,4.1,1.3,6.2,2c-0.8-1.4-1.3-3.5-2.6-4.2C802.6,827,810,824.7,802.5,820.1L802.5,820.1z
				 M750.2,663.7c-0.3,0.9-1.5,2.7-1,3.3c6.2,8.9,12.6,17.6,19,26.3c7,0.2,5.6,5.3,6,9.7c0.1,1.4,2.1,3.9,3,3.8
				c4.4-0.4,5.5,1.7,7.1,5.4c2.2,4.8,6.2,8.9,9.7,13c0.6,0.7,3.2,0.5,4-0.2s1.3-3.3,0.8-4c-3.8-4.2-9-7.5-11.8-12.3
				c-8.4-14.5-20-26.7-28.9-40.8C756.8,665.9,753.2,665.2,750.2,663.7L750.2,663.7z M742.4,678.9l-2.5,1.4c5,5.4,2,13.4,6.3,19
				c0.6,0.4,1.3,0.6,2.1,0.7c1.4-3.6,3.3-7.1,3.8-10.8C752.7,685.9,746.5,680,742.4,678.9L742.4,678.9z M242.9,696.9
				c-0.1-0.5-0.3-1-0.5-1.5c-1.5-2.4-2.6-5.8-4.7-6.8c-3.4-1.5-7.1,0.1-9.2,3.6c-0.7,1.1-1.2,3.2-0.6,4.1s3.3,1.8,3.8,1.3
				c2.5-2.3,4.5-3.3,7,0C239.2,698.1,241.5,697.2,242.9,696.9L242.9,696.9z M786.6,736.1c-0.2-2.7-9.4-13.1-11.4-12.8
				c-0.5,0.2-0.9,0.6-1,1.1c-0.1,2.1-0.9,5,0.1,6c3.2,3,7,5.3,10.7,7.7C785.6,737.4,786.1,736.8,786.6,736.1L786.6,736.1z
				 M205.7,716.3c-0.3-0.9-0.7-1.8-1.2-2.6c-1-1.2-2.1-2.3-3.3-3.3c-0.7,1.2-1.2,2.4-1.7,3.6c-0.3,1-0.3,2.1,0,3.1
				c1.4,3.7-6.4,9.1,0.9,10.7c4.8,1-0.5-7.3,4.3-8.9C205.3,718.7,205.4,717.2,205.7,716.3L205.7,716.3z M664.7,589.5
				c0-1.7,0.1-2.6,0-2.6c-3.8-1.4-7.6-2.8-11.5-4c0,0-1.1,1.8-0.9,2.5c0.8,2.7,1.9,5.3,3.2,7.7c0.2,0.4,2.2,0.3,3-0.1
				C661,591.8,663.1,590.4,664.7,589.5L664.7,589.5z M732.2,641.3c-0.6,1-2,2.8-1.7,3.2c2.9,3.3,6,6.4,9.2,9.4c0.5,0.3,1,0.3,1.5,0
				c0.5-0.6,1.3-1.7,1.1-2c-2.1-3.3-4.2-6.6-6.6-9.7C735.2,641.6,733.8,641.7,732.2,641.3L732.2,641.3z M775.9,794.2
				c0.6-0.6,1.3-1.1,1.2-1.3c-1.2-2.5-2.6-4.9-4.2-7.2c-0.6-0.7-2.6-0.3-4-0.2c-0.4,0-0.7,0.7-1.1,1L775.9,794.2z M653.9,572.2
				c-2.4-1.4-4.1-2.8-4.6-2.5c-2.1,1.6-4,3.3-5.8,5.1c1.9,0.3,3.8,1.1,5.6,0.8C650.6,575.5,651.8,574,653.9,572.2L653.9,572.2z
				 M284.3,652.7l-5.7-4.4c-0.3,0.9-1.2,2.1-0.9,2.5c1.6,2,3.4,3.8,5.2,5.7C283.2,655.6,283.5,654.8,284.3,652.7L284.3,652.7z
				 M787.1,802.2c-1.7,2.2-3.1,3.4-3.4,4.8c-0.2,0.8,1.4,2,2.2,3c1.3-1,2.9-1.9,3.7-3.2C789.9,806.3,788.5,804.7,787.1,802.2
				L787.1,802.2z M731.6,659.7l-3.8,1.5l4.2,5.2c0.5-0.8,1.5-1.7,1.4-2.4C733,662.5,732.4,661.1,731.6,659.7L731.6,659.7z
				 M737.3,682.2l-2.2-3.3l-4.1,5.3c0.9,0.3,2,1.1,2.6,0.8C734.9,684.3,736.2,683.3,737.3,682.2L737.3,682.2z M758.7,700.1l-3.3,2.2
				l5.3,4.1c0.3-0.9,1.1-2,0.8-2.6C760.7,702.5,759.8,701.3,758.7,700.1L758.7,700.1z M170.2,60.1c1.5-1.5,2.9-2.9,4.3-4.3
				c-1.3-0.5-3.2-1.8-3.7-1.4c-1.2,1-1.8,2.8-2.4,4.4C168.3,59,169.5,59.7,170.2,60.1L170.2,60.1z M808.7,733.5l-5.4-4.1
				c-0.3,0.8-1.2,2.1-1,2.5c1,1.3,2.3,2.3,3.7,3.2C806.5,735.3,807.6,734.2,808.7,733.5L808.7,733.5z M328.3,247.5
				c1.7-4,2.5-5.3,2.3-5.6c-1.1-1.2-2.3-2.3-3.6-3.3c-0.5,0.8-1.6,1.8-1.5,2.5C325.9,242.8,326.9,244.5,328.3,247.5z M272.6,666.9
				c0.7-1.4,1.3-2.8,1.7-4.3c0.1-0.7-0.9-1.6-1.4-2.3l-4.1,5.2L272.6,666.9z M698.6,209.4c0.8,1.2,1.8,2.4,2.7,3.7
				c0.4-1.4,1.1-2.8,1-4.1c-0.2-1.5-1.3-2.9-1.9-4.3L698.6,209.4z M387.5,547.4c-1.2-1-2.5-1.9-3.8-2.6c-0.6-0.2-1.7,0.6-2.5,1
				l4.3,5.1L387.5,547.4z M224,112.4c-0.3-0.5-1-1.8-1.1-1.7c-1.6,0.6-3.4,1.2-4.4,2.4c-0.4,0.5,0.9,2.4,1.4,3.7L224,112.4z
				 M719.2,625.5l-3.8,1.4l4.1,5.3c0.5-0.8,1.6-1.7,1.5-2.3C720.5,628.3,720,626.8,719.2,625.5L719.2,625.5z M568.5,361.5
				c-0.8-2-1.2-2.9-1.6-3.7l-5.1,4.3c0.8,0.5,1.7,1.5,2.4,1.3C565.8,362.9,567.2,362.3,568.5,361.5z M768.5,776.1l-2.1-3.3l-4.2,5.2
				c0.9,0.3,2,1.2,2.5,0.9C766.1,778,767.4,777.1,768.5,776.1z M441.8,331.8c-0.8,1.2-1.8,2.1-1.7,2.8c0.3,1.4,0.8,2.7,1.5,3.9
				c0.5-0.8,1.5-1.6,1.5-2.4C442.8,334.7,442.4,333.2,441.8,331.8z M540.6,362l-2.7-1.2c-0.3,0.8-1.2,1.8-1,2.5c0.3,1,1.3,1.8,2,2.7
				C539.2,365.3,539.6,364.4,540.6,362L540.6,362z M442.5,369.6c0.3-1.5,0.5-3,0.5-4.5c0-0.4-1.3-0.8-2-1.2c-0.5,1.3-0.8,2.7-1,4.1
				C440,368.5,441.3,368.9,442.5,369.6L442.5,369.6z M149.3,766.8l1.8,2.7c0.7-1.2,1.1-2.5,1.4-3.9c0.1-0.7-0.9-1.6-1.4-2.3
				L149.3,766.8z M807.8,791.5c-1.2,0.7-2.4,1.2-2.4,1.6c0.2,1.4,0.5,2.8,1,4.1c0.7-0.4,1.9-0.8,2-1.2
				C808.4,794.5,808.2,793,807.8,791.5z M418.5,328.9l-3.5,1.8c0.8,0.5,1.6,1.5,2.4,1.5c1.4-0.3,2.7-0.8,3.9-1.5L418.5,328.9z
				 M144.9,36.2l4.1-1.7c-0.9-0.7-1.7-1.7-2.7-2c-0.7-0.2-1.7,0.6-2.5,1L144.9,36.2z M795.9,815.7c-0.7-1.1-1.2-2.4-1.5-2.4
				c-1.4,0.2-2.8,0.5-4.1,1c0.4,0.7,0.8,1.9,1.2,2C792.9,816.3,794.4,816.1,795.9,815.7L795.9,815.7z M215.3,709.8l-1.8-2.7
				c-0.7,1.2-1.1,2.5-1.4,3.9c-0.1,0.7,0.9,1.6,1.4,2.3L215.3,709.8z M223,704.6l4.1-1.7c-0.9-0.7-1.7-1.7-2.7-2
				c-0.7-0.2-1.7,0.6-2.5,1L223,704.6z M252.4,693.9c-0.7-1.2-1.2-2.4-1.5-2.4c-1.4,0.2-2.8,0.5-4.1,1c0.4,0.7,0.8,1.9,1.2,1.9
				C249.5,694.5,251,694.3,252.4,693.9z M397.8,298.6l4.1-1.7c-0.9-0.7-1.7-1.7-2.7-2c-0.7-0.2-1.7,0.6-2.5,1L397.8,298.6z
				 M262.6,677.3l-1.7-4.1c-0.7,0.9-1.7,1.7-2,2.7c-0.2,0.7,0.6,1.7,1,2.5L262.6,677.3z M739.2,669.7c-1.2,0.7-2.4,1.2-2.4,1.5
				c0.2,1.4,0.5,2.8,1,4.1c0.7-0.4,1.9-0.8,1.9-1.2C739.7,672.7,739.5,671.2,739.2,669.7L739.2,669.7z M121.3,78.7
				c-0.7-1.1-1.2-2.4-1.5-2.4c-1.4,0.2-2.8,0.5-4.1,1c0.4,0.7,0.8,1.9,1.2,2C118.3,79.3,119.8,79,121.3,78.7L121.3,78.7z
				 M817.6,834.8c0.5,1.1,1.2,2.3,1.8,3.5c0.5-0.8,1.5-1.6,1.4-2.3c-0.3-1.4-0.8-2.7-1.4-3.9L817.6,834.8z M646.7,274.4l-1.7-4.1
				c-0.7,0.9-1.7,1.7-2,2.7c-0.2,0.7,0.6,1.7,1,2.5L646.7,274.4z M237.3,125.9l-3.5,1.8c0.8,0.5,1.6,1.5,2.4,1.5
				c1.4-0.3,2.7-0.8,3.9-1.5L237.3,125.9z M770.9,123.7c-1.5-0.3-3-0.5-4.4-0.5c-0.4,0-0.8,1.3-1.2,2c1.3,0.5,2.7,0.8,4.1,1
				C769.7,126.1,770.2,124.8,770.9,123.7z M707.9,647.8c-1.2,0.7-2.4,1.2-2.4,1.5c0.2,1.4,0.5,2.8,1,4.1c0.7-0.4,1.9-0.8,1.9-1.2
				C708.4,650.8,708.2,649.3,707.9,647.8L707.9,647.8z M842.2,841.5c-1.1,0.7-2.4,1.2-2.4,1.5c0.2,1.4,0.5,2.8,1,4.1
				c0.7-0.4,1.9-0.8,2-1.2C842.8,844.4,842.6,843,842.2,841.5L842.2,841.5z M152.8,94.5l-1.8-2.7c-0.7,1.2-1.1,2.5-1.5,3.9
				c-0.1,0.7,0.9,1.6,1.5,2.4L152.8,94.5z M387.1,563l-1.8-2.7c-0.7,1.2-1.1,2.5-1.4,3.9c-0.1,0.7,0.9,1.6,1.4,2.3
				C385.9,565.3,386.6,564.1,387.1,563L387.1,563z M311.8,619c-0.7-1.2-1.2-2.4-1.5-2.4c-1.4,0.2-2.8,0.5-4.1,1
				c0.4,0.7,0.8,1.9,1.2,2C308.8,619.6,310.3,619.3,311.8,619L311.8,619z M580.3,578.6l1.8,3.5c0.5-0.8,1.5-1.6,1.5-2.4
				c-0.3-1.4-0.8-2.7-1.5-3.9L580.3,578.6z M643.6,580.6l-2.7-1.2c-0.4,0.9-1.2,1.8-1,2.6c0.3,1,1.3,1.8,2,2.7
				C642.3,583.9,642.6,583,643.6,580.6L643.6,580.6z M332.9,613.2c0-0.8-0.1-1.6-0.2-2.4c-1.4-0.1-2.7-0.1-4.1,0
				c-0.1,0.7-0.1,1.3,0,2C330,613,331.5,613.2,332.9,613.2L332.9,613.2z M673.6,607.2c-1.2,0.7-2.4,1.2-2.4,1.6
				c0.2,1.4,0.5,2.8,1,4.1c0.7-0.4,1.9-0.8,2-1.2C674.1,610.2,673.9,608.7,673.6,607.2L673.6,607.2z M668.4,602.8l1.1,1.1
				c0.4-0.7,0.8-1.4,1-2.1c0.1-0.2-0.6-0.7-1-1L668.4,602.8z M270.8,189.7c-0.4-0.4-0.8-0.8-1.1-1.1c-0.4,0.7-0.7,1.4-1,2.1
				c-0.1,0.3,0.6,0.7,1,1L270.8,189.7z M308.3,630.1l-1.1-1.1c-0.4,0.7-0.7,1.4-1,2.1c-0.1,0.3,0.6,0.7,1,1
				C307.6,631.4,308,630.8,308.3,630.1L308.3,630.1z M673.8,631l-1.1-2c-0.3,0.3-1,0.8-1,1c0.2,0.7,0.6,1.4,1,2.1L673.8,631z
				 M689.4,631l-1.1-2c-0.3,0.3-1,0.8-1,1c0.2,0.7,0.6,1.4,1,2.1L689.4,631z M693.4,631l1.1,1.1c0.4-0.7,0.8-1.4,1-2.1
				c0-0.2-0.6-0.7-1-1L693.4,631z M292,634.8c0.4-0.4,0.8-0.8,1.1-1.1c-0.7-0.4-1.4-0.8-2.1-1c-0.3-0.1-0.7,0.6-1,1L292,634.8z
				 M285.3,176.1c-0.3,0.3-1,0.8-1,1c0.2,0.7,0.6,1.4,1,2.1c0.3-0.3,1-0.8,1-1C286.1,177.5,285.8,176.8,285.3,176.1L285.3,176.1z
				 M705,642.6l-1.1-1.1c-0.4,0.7-0.8,1.4-1,2.1c-0.1,0.2,0.6,0.7,1,1L705,642.6z M397.8,554c-0.3,0.3-1,0.8-1,1
				c0.2,0.7,0.6,1.4,1,2.1c0.3-0.3,1-0.8,1-1C398.6,555.4,398.3,554.7,397.8,554z M272.8,644.6c-0.3,0.3-1,0.8-1,1
				c0.3,0.7,0.6,1.4,1,2.1c0.3-0.3,1-0.8,1-1C273.6,646,273.3,645.3,272.8,644.6z M598.1,528.6l1.1-1.1c-0.7-0.4-1.4-0.8-2.1-1
				c-0.2-0.1-0.7,0.6-1,1L598.1,528.6z M719.9,648.2l-2,1.1c0.3,0.3,0.8,1,1,1c0.7-0.2,1.4-0.6,2.1-1L719.9,648.2z M598.1,522.4
				l1.1-1.1c-0.7-0.4-1.4-0.8-2.1-1c-0.2-0.1-0.7,0.6-1,1L598.1,522.4z M193.2,68.4c-0.3-0.3-0.8-1-1-1c-0.7,0.2-1.4,0.6-2.1,1
				c0.3,0.3,0.8,1,1,1C191.9,69.1,192.6,68.8,193.2,68.4L193.2,68.4z M224,708.2c-0.4-0.4-0.8-0.8-1.1-1.1c-0.4,0.7-0.8,1.4-1,2.1
				c-0.1,0.3,0.6,0.7,1,1L224,708.2z M736.2,737.2l-1.1-2c-0.3,0.3-1,0.8-1,1c0.2,0.7,0.6,1.4,1,2.1L736.2,737.2z M534.1,380.2
				c0.4,0.7,0.7,1.3,1.1,2c0.3-0.3,1-0.8,1-1c-0.2-0.7-0.6-1.4-1-2.1L534.1,380.2z M786.2,115.7l-1.1-2c-0.3,0.3-1,0.8-1,1
				c0.2,0.7,0.6,1.4,1,2.1C785.4,116.4,785.8,116.1,786.2,115.7z M725.3,185l2-1.1c-0.3-0.3-0.8-1-1-1c-0.7,0.2-1.4,0.6-2.1,1
				L725.3,185z M445.8,349c-0.4-0.4-0.8-0.8-1.1-1.1c-0.4,0.7-0.7,1.4-1,2.1c0,0.3,0.6,0.7,1,1L445.8,349z M130.3,784l-1.1-2
				c-0.3,0.3-1,0.8-1,1c0.2,0.7,0.6,1.4,1,2.1C129.5,784.8,129.9,784.4,130.3,784L130.3,784z M261.5,146l-1.1-1.1
				c-0.4,0.7-0.8,1.4-1,2.1c0,0.2,0.6,0.7,1,1L261.5,146z M816.8,791l1.1-1.1c-0.7-0.4-1.4-0.7-2.1-1c-0.3-0.1-0.7,0.6-1,1
				L816.8,791z M784.6,794.1l2-1.1c-0.3-0.3-0.8-1-1-1c-0.7,0.2-1.4,0.6-2.1,1L784.6,794.1z M795.6,799.7l-1.1-2c-0.3,0.3-1,0.8-1,1
				c0.3,0.7,0.6,1.4,1,2.1L795.6,799.7z M227.1,121c-0.4-0.4-0.8-0.8-1.1-1.1c-0.4,0.7-0.8,1.4-1,2.1c-0.1,0.3,0.6,0.7,1,1
				L227.1,121z M617.5,299.9l-1.1-2c-0.3,0.3-1,0.8-1,1c0.2,0.7,0.6,1.4,1,2.1L617.5,299.9z M630.5,290.1c-0.3-0.3-0.8-1-1-1
				c-0.7,0.2-1.4,0.6-2.1,1c0.3,0.3,0.8,1,1,1C629.1,290.9,629.8,290.5,630.5,290.1z M335.8,285.9l-2,1.1c0.3,0.3,0.8,1,1,1
				c0.7-0.2,1.4-0.6,2.1-1L335.8,285.9z M158.4,124.1l-1.1-1.1c-0.4,0.7-0.8,1.4-1,2.1c-0.1,0.3,0.6,0.7,1,1
				C157.7,125.5,158.1,124.8,158.4,124.1z M682.4,235l1.1-1.1c-0.7-0.4-1.4-0.7-2.1-1c-0.3,0-0.7,0.6-1,1L682.4,235z M320.8,233.5
				l-1.1-1.1c-0.4,0.7-0.8,1.4-1,2.1c-0.1,0.2,0.6,0.7,1,1L320.8,233.5z M677.8,225l1.1,1.1c0.4-0.7,0.8-1.4,1-2.1
				c0.1-0.3-0.6-0.7-1-1L677.8,225z M696.1,199.5c-0.3-0.3-0.8-1-1-1c-0.7,0.3-1.4,0.6-2.1,1c0.3,0.3,0.8,1,1,1
				C694.8,200.3,695.4,200,696.1,199.5L696.1,199.5z M295.8,199.1l-1.1-1.1c-0.4,0.7-0.8,1.4-1,2.1c-0.1,0.3,0.6,0.7,1,1
				L295.8,199.1z M257.7,198.4l-2,1.1c0.3,0.3,0.8,1,1,1c0.7-0.2,1.4-0.6,2.1-1C258.5,199.2,258.1,198.8,257.7,198.4z M573.8,506.1
				l-1.1-2c-0.3,0.3-1,0.8-1,1c0.2,0.7,0.6,1.4,1,2.1L573.8,506.1z"/>
			<path class="st0" d="M849.1,849.4c-0.1-0.8-0.1-1.6,0-2.4c0.5-2.9,0.7-5.9,1.7-8.6c0.3-0.9,10.7,8.4,10.7,10.6
				c0.1,7.4-0.9,15.1,5.1,21.1c0.9,0.9,1.4,3.8,1.1,3.9c-1.6,0.9-3.7,1.8-5.4,1.6s-4.6-1.4-4.9-2.7
				C855.8,864.4,846.6,858.4,849.1,849.4z M859.1,852.2c-1-2.4-1.3-3.2-1.7-4.1c-0.7,0.9-1.7,1.7-2,2.7c-0.2,0.7,0.6,1.7,1,2.5
				L859.1,852.2z"/>
			<path class="st0" d="M105.8,816.1c0-3.3-0.1-5.4,0.1-7.4c0-0.5,1.3-0.9,2-1.1c0.2-0.1,1,0.7,1,1c0.1,2.1-0.7,4.5,0.2,6.1
				c1.3,1.8,3.2,3.2,5.3,3.8c0.9,0.3,2.7-3.8,3.7,0.1c0.3,1-1.7,2.8-2.9,3.9c-0.8,0.5-1.7,0.9-2.6,1.1c0.9,0.7,1.7,1.8,2.7,2
				c3.8,0.6,3.7,3.1,2.1,5.3c-0.5,0.8-3.7,0.5-5-0.3C106.8,826.9,104.4,821.6,105.8,816.1z"/>
			<path class="st0" d="M72.5,856.5c0,0-0.6-0.3-0.7-0.8c-0.4-0.9-0.5-2-0.3-2.9c1.9-5.1,9.5-4.8,10.6-10.9c0-0.2,3.3-0.5,3.9,0.2
				c1.5,1.8,3.1,4.1,3.3,6.3c0.4,4.3-3.4,1.5-5.1,2.3C80.3,852.6,76.5,854.5,72.5,856.5z"/>
			<path class="st0" d="M96.4,842.1c-0.2,0.4-0.2,1.2-0.5,1.2c-0.7,0.2-1.7,0.4-2.1,0c-2.2-2-4.7-4-6.2-6.4c-0.6-1,0.7-3.3,1.1-4.9
				c1.4,0.4,3.5,0.3,3.9,1.2C94.1,836,95.4,839,96.4,842.1z"/>
			<path class="st0" d="M349.4,366.6c0,1.5-0.5,3.3,0.1,4.5c1.3,2.4,5,4,1.9,7.2c-0.2,0.2-3.3-2.7-5.2-3.9c-2.9-1.9-3.5-4.6-3.1-7.8
				H349.4z"/>
			<path class="st0" d="M533.7,288.5c0,0.5,0.2,1.3,0,1.5c-3.6,2.6-5.2,7.9-10.6,7.8c-0.4,0-0.8-0.6-1.2-0.9c2.5-2.9,5-5.8,7.5-8.8
				c0.6-0.8,1.3-1.6,2.2-2.1c0.5-0.2,1.5,0.4,2.1,0.9C533.8,287.2,533.7,288,533.7,288.5z"/>
			<path class="st0" d="M343.2,366.6c-6.9,0.5-9.8-4.4-12.5-9.4l9.4,3.1C341.1,362.5,342.1,364.5,343.2,366.6z"/>
			<path class="st0" d="M673.2,566c-0.4,0.2-1.1,0.6-1.2,0.5c-2.4-2-4.7-4-7-6.1c-0.2-0.4-0.2-1,0-1.4c0.5-0.6,1.7-1.4,1.9-1.3
				c2.6,2.4,5,4.8,7.4,7.3L673.2,566z"/>
			<path class="st0" d="M503.2,324.8c-3,1.6-5.6,3-8.2,4.2c-0.2,0.1-1.1-1.2-1.7-1.8c2.3-1.8,3.6-5.4,7.5-4.3
				C501.5,323.1,502,323.8,503.2,324.8z"/>
			<path class="st0" d="M95.3,826.2c-0.8-1.3-1.4-2.8-1.9-4.2c-0.2-0.7,0.8-1.6,1.3-2.4l4.3,5.1L95.3,826.2z"/>
			<path class="st0" d="M394.5,414.6c-2.6,1.2-3.4,1.9-4.2,2c-3.6,0.3-3.6-2.3-3.3-4.7c0.1-0.5,1.2-1.5,1.3-1.4
				C390.2,411.6,392.1,412.9,394.5,414.6z"/>
			<path class="st0" d="M310.7,341.6c-0.8-1.1-1.4-2.2-1.8-3.5c-0.1-0.5,1.3-1.4,2.1-2.2l4,5.6H310.7z"/>
			<path class="st0" d="M321.8,343.8l-1.8,3.7l-5.1-4.4c0.5-0.5,1.1-1.5,1.4-1.4C318.3,342.3,320,343.1,321.8,343.8z"/>
			<path class="st0" d="M329.2,357.6c-1.6-1.9-3-3.7-4.4-5.4c0.7-0.5,1.6-0.9,2.4-1.1c3.6-0.3,3.6,2.3,3.4,4.7
				C330.5,356.4,329.8,356.9,329.2,357.6z"/>
			<path class="st0" d="M814.6,775.1c-1.5,0.3-3,0.5-4.4,0.5c-0.4,0-0.8-1.3-1.2-2c1.3-0.5,2.7-0.8,4.1-1
				C813.5,772.7,813.9,774,814.6,775.1z"/>
			<path class="st0" d="M840.4,808.7c-1,2.4-1.3,3.2-1.7,4.1c-0.7-0.9-1.7-1.7-2-2.7c-0.2-0.7,0.6-1.7,1-2.5L840.4,808.7z"/>
			<path class="st0" d="M384.1,411l-3.2-2.5c1.2-0.6,2.5-1,3.8-1.2c0.7,0,1.4,1,2.2,1.6L384.1,411z"/>
			<path class="st0" d="M674.7,570.8c0.4-0.4,0.8-0.8,1.1-1.1c0.4,0.7,0.7,1.4,1,2.1c0,0.3-0.6,0.7-1,1L674.7,570.8z"/>
			<path class="st0" d="M339.8,621.4c-0.4,0.4-0.9,1-1,1c-0.7-0.4-1.3-0.9-1.9-1.4l1.4-1.4C338.8,620.2,339.3,620.8,339.8,621.4z"/>
			<path class="st0" d="M398.9,420.8c-0.4,0.7-0.7,1.3-1.1,2c-0.3-0.3-1-0.8-1-1c0.2-0.7,0.6-1.4,1-2.1L398.9,420.8z"/>
			<path class="st0" d="M233.6,721.4c-0.4,0.4-0.9,1-1,1c-0.7-0.4-1.3-0.9-1.9-1.4l1.4-1.4L233.6,721.4z"/>
			<path class="st0" d="M220,722.9c0.4,0.4,1,0.9,1,1c-0.4,0.7-0.9,1.3-1.4,1.9l-1.4-1.4L220,722.9z"/>
			<path class="st0" d="M185.4,757c0.4,0.7,0.8,1.4,1,2.1c0.1,0.2-0.6,0.7-1,1c-0.4-0.7-0.8-1.4-1-2.1
				C184.4,757.8,185.1,757.4,185.4,757z"/>
			<path class="st0" d="M180.3,768.4l-1.1,1.1c-0.4-0.7-0.8-1.4-1-2.1c-0.1-0.3,0.6-0.7,1-1L180.3,768.4z"/>
			<path class="st0" d="M583.2,355.3l-1.1,2c-0.3-0.3-1-0.8-1-1c0.3-0.7,0.6-1.4,1-2.1L583.2,355.3z"/>
			<path class="st0" d="M174,777.8l-1.1,1.1c-0.4-0.7-0.7-1.4-1-2.1c0-0.3,0.6-0.7,1-1L174,777.8z"/>
			<path class="st0" d="M145.3,807.5l1.1,1.1c-0.7,0.4-1.4,0.8-2.1,1c-0.3,0.1-0.7-0.6-1-1L145.3,807.5z"/>
			<path class="st0" d="M504.2,320c0.4,0.4,1,0.9,1,1c-0.4,0.7-0.9,1.3-1.4,1.9l-1.4-1.4L504.2,320z"/>
		</g>
		<path id="V" class="st0" d="M927.2,365.5c1,1.7,1.3,3.7,0.9,5.6c-0.3,1.1-1.1,2-2.1,2.4c-4.2,1-4.7,1.5-3.6,2.5
			c3.5,3.2,3.3,5.5,0,8.8c-4.1,4.3-7.4,9.4-6.7,15.9c0.4,4.4-2.5,6.4-5.9,7.8c-1.6,0.7-5,1.9-1.9,2.7c7.2,1.9,3.6,3.8,2.3,8
			c-1.9,6.5-5.5,12.9-4,20.3c0.4,1.8,0.2,4.6-0.9,5.7c-9.1,9.2-6,22.4-11.3,32.8c-2.3,4.7-1.2,11.1-3.7,15.6
			c-2.2,3.9-2.5,7.4-2.9,11.4c-0.4,4.4,1.9,9.3-1.9,13.2c-2.7,2.8,1.4,10.2-6.4,9.6c0.5,1.1,1,2.2,1.4,3.3
			c3.7,10.8-1.1,19.4-7.3,27.5c-1.1,1.4-3.3,2.9-4.9,2.8c-5.1-0.4-6.2,1.9-5.8,6.3c0.3,2.6,0.3,5.2-0.1,7.8c-0.2,0.8-3,2-3.7,1.6
			c-5.3-3.6-10.8-7.2-15.5-11.6c-5.5-5.2-6.8-13-8.3-19.8c-1.3-5.9-3.7-10.9-5.9-16.4c-4.9-12.5-12.3-24-13.8-38.1
			c-0.7-6.8-6.4-12.9-8.8-19.6c-5.6-15.9-10.4-32.1-15.8-48.1c-3.4-10.1-4.9-21.4-9.9-30.1c-8.6-15.2-9.6-32.5-16.9-47.7
			c-1-2.1-1-4.8-1.3-7.2c-0.3-2.8,0.1-5.5,3.8-4.8c3.3,0.6,9.2-3,8.6,4.7c-0.3,3.7,0.1,6.9,3,9.7c2,2,3.2,4.9,4.7,7.3
			c3.4-3.1,1.1-5.2-1.2-7.4c4.1-4.1,1.7-9.6,3.1-14.1c0.8-2.5,4.4-4.8,7.2-5.9c1.6-0.6,5.3,0.8,6.1,2.3c3.8,7,8.7,13.3,14.5,18.6
			c6.8,6.1,5.3,15.5,9.3,22.7c0.9,1.7,0.4,4.6,1.7,5.4c6.7,4.9,5.2,8.8-0.5,13.3c-2.8,2.2-1,4.5,1.1,6.4c0.8,0.7,1.5,1.5,2.2,2.2
			c0.7-1.1,1.3-2.3,1.8-3.4c0.6-1.8,1-3.7,1.5-5.6c0.5,1.8,1.8,3.8,1.5,5.4c-1.1,5.4,1.9,9.7,3.3,14.3c0.6,1.8,3.2,3.6,2.9,4.9
			c-1.9,8.9,3.7,16.7,3.3,25.3l-2.6,1l2.6,2.1c-0.7,5.5,2.1,8.6,7.3,9.3c2.5,0.4,5,0.5,5.2-3.4c0.7-12.3,6.4-23.7,6.2-36.2
			c0-2.2,5.2-10.2,7.8-13.5c1.6-2.4,3.1-4.9,4.4-7.5c2.6-4.5-4.2-11.6,5-15.1c4-1.5,2.5-11.1,9.9-12.3c-1.1-8.5,7-11.5,10.3-17.5
			c0.6-1.2,1.2-2.4,1.7-3.6c0.4,1.4,0.9,2.7,1.4,4.1c0.4,0.9,1,1.7,1.9,2.3c1.4,0.6,2.9,1,4.3,1.3v-4.7c1.3-0.6,2.5-1.4,3.7-2.2
			c2.3-1.9,3.8-3.7-1-4.2c-0.7-0.1-1.2-1.5-1.8-2.3c0.4-0.3,0.8-0.5,1.3-0.7c4.8-0.5,9.6,3.6,14.5,0.1c0.2-0.2,1.7,0.9,2.3,1.7
			c5,7.2,11.4,14,9.2,24c-0.8,3.8-4,2-7.3,3c-0.1-1.2,0.9-2.4,0.9-3.5s-1.1-2-1.7-3l-4.1,4.1C923.6,364.3,925.4,365.1,927.2,365.5z
			 M805,414.9h1.4c-0.2-0.8-0.5-1.6-0.9-2.4c-0.2-0.2-1.2,0.3-1.9,0.5c0.5,0.6,1,1.2,5.7,3.7l-1.5-1.8l-1.4,1.4
			c0.6,0.5,1.2,1,1.9,1.4C808.4,417.7,808.9,417.1,805,414.9L805,414.9z M818.9,425.6v-1.4c-0.8,0.2-1.6,0.5-2.4,1
			c-0.2,0.2,0.3,1.2,0.5,1.9c0.9-0.7,1.6-1.7,1.8-2.8c1,0,2.1,0,6,1.8l-1.5-1.8l-1.4,1.4c0.6,0.5,1.2,1,1.9,1.4
			c0.1,0.1,0.6-0.6-1.9-2.8c-0.3-0.9-0.7-1.7-1-2.6C820.1,422.8,819.3,424.2,818.9,425.6z M828.6,429.8l-3.3,2.1l5.2,4.2
			c0.3-0.9,1.2-2,0.9-2.5C830.5,432.3,829.6,431,828.6,429.8L828.6,429.8z M890.1,458.7c-1.1,0.7-2.4,1.2-2.4,1.5
			c0.2,1.4,0.5,2.8,1,4.1c0.7-0.4,1.9-0.8,2-1.2C890.7,461.7,890.5,460.2,890.1,458.7L890.1,458.7z M828.7,466.8l1.1,1.1
			c0.4-0.7,0.8-1.4,1-2.1c0-0.2-0.6-0.7-1-1C829.5,465.5,829.1,466.2,828.7,466.8L828.7,466.8z M870.4,436.7c-0.3,0.3-1,0.8-1,1
			c0.2,0.7,0.6,1.4,1,2.1c0.3-0.3,1-0.8,1-1C871.2,438.1,870.9,437.4,870.4,436.7L870.4,436.7z M836.1,433.6c-0.3,0.3-1,0.8-1,1
			c0.2,0.7,0.6,1.4,1,2.1c0.3-0.3,1-0.8,1-1C836.8,435,836.5,434.3,836.1,433.6z M820.5,433.6c-0.3,0.3-1,0.8-1,1
			c0.3,0.7,0.6,1.4,1,2.1c0.3-0.3,1-0.8,1-1C821.2,435,820.9,434.3,820.5,433.6z M899,433.2l1.1-1.1c-0.7-0.4-1.4-0.7-2.1-1
			c-0.3-0.1-0.7,0.6-1,1L899,433.2z M834.1,425.4l-1.1-1.1c-0.4,0.7-0.7,1.4-1,2.1c-0.1,0.3,0.6,0.7,1,1L834.1,425.4z M824.7,416
			l-1.1-1.1c-0.4,0.7-0.7,1.4-1,2.1c-0.1,0.3,0.6,0.7,1,1L824.7,416z M912.2,398.1c-0.4-0.7-0.7-1.3-1.1-2c-0.3,0.3-1,0.8-1,1
			c0.2,0.7,0.6,1.4,1,2.1L912.2,398.1z M802.8,398.1c-0.4-0.7-0.7-1.3-1.1-2c-0.3,0.3-1,0.8-1,1c0.3,0.7,0.6,1.4,1,2.1L802.8,398.1z
			 M925.6,350.4l1.1,2c0.3-0.3,1-0.8,1-1c-0.3-0.7-0.6-1.4-1-2.1L925.6,350.4z"/>
		<g id="J">
			<path class="st0" d="M26.9,345.6c-0.3,0.4-0.6,0.7-0.9,1.1c1.3-0.3,2.7-0.6,4.2-0.9C30.3,345.8,27.3,345.2,26.9,345.6z"/>
			<path class="st0" d="M88.7,576.5c1.7-0.8,4.4-2.4,5.1-2.2c2,0.7,0.5,6.6,6.5,0.4c5.6-5.8,16.3-5.7,21.6-13
				c3-4.1,12.2-7.7,18.8-11.4c7.5-4.2,17.7-4.7,23-11.7c8.7,0.4,12.7-7.8,20.2-9.1c16.8-2.7,13.1-13.6,22.5-19.5
				c2.3-1.5,0.9-6,1-6.5c-2.4-6-4.7-9.3-8.7-10.6c-0.3-1.9-0.7-3.8-1.2-5.6c-4.8-17.3-8-35.2-7-59c4.2-18.6-8.9-37.6-6.5-60.3
				c0-0.7-0.4-1.3-0.9-1.8c-6.6-3.9-4.6-15.1-7.5-22.3c-0.7-1.8-1.4-3.8-2.1-5.8c6-1.8,8.4-4.8,7.7-7.8c-1.9-1-3.3-2.7-3.8-4.8
				c0.9-0.5,1.8-0.9,2.8-1.2c0.8,1.1,1.5,2.4,2,3.7c0.2,0.5-0.9,1.3-1,2.4c9.2-12.5,9.6-12.7,6.5-14.3c-2.7-1.4-7.5-1.7-8.7-3.6
				c-1.1-1.6,2.8-5.1,2.2-7.2c-1.1-4.4-5.7-6.2-12.8-4.5c-6.8,1.6-13.7,3.5-20.5,5c-1.4,0.3-3-0.6-4.5-1c5.6-6.1-0.7-5.3-4.1-2.7
				c-5,3.8-8.7,4.8-15.6,5.4c-11.7,1-23.6,4.7-35.4,7.3c-2.6,9-12.5,5.3-19.1,7.4c-5.2,1.6-12.6,1.7-15.5,4.2
				c-8.2,7.1-19.1,12.3-23.6,19.7c1.4,2.6,0.4,4.5-1.5,5.5c-1.1,0.6-3.5-0.1-5.4-0.2c0.8-1.5,1.7-2.9,2.6-4.3
				c-3.1,0.7-6,1.9-8.8,3.5c-12.6,7.7,3.7,7.5-11.7,13.6c-2.4,1-3.7,3.7-5.5,5.7c3.2-0.1,7.3,0.6,9.5-0.6c11.2-6,17.5,2.6,27.2,0.4
				c0,0.8,0.5,1.6,0.1,2.2c-4.3,5.8,3.3,3.3,4.4,2.3c4.2-3.6,7.3-7.7,11.2-11.4c1.1-1,3.9-1.3,5.9-2c-0.2,1.2,0,2.4-0.6,3.5
				c-2.3,4.5-0.5,6,6,4.4c7.6-1.9-6.7,7.2,0.7,6.6c7-0.5,8.9-10.1,17.2-5.8c5.9-2.9,11.7-6,17.8-8.7c3.5-1.4,7-2.6,10.6-3.6
				c11.2-3.4,5.5,0.1,16.7-3.3c0.2,5.5,11.1,8,10.1,12.9c-1.3,6.3-5.7,9.5,1.9,12.8c3,1.3,3,17.1,0,18.4c-5.1,2.2-2.3,2.9-2,7.9
				c0.5,8.7,12.4,1.9,12.7,6.1c0.3,4.9-2.2,10-2.7,15.2c-0.4,3.8,0.1,7.7,1.3,11.3c1.6,3.9,1.6,6,0.4,10.5
				c-3.1,11.2-3.8,24.1,0.1,34.4c2.1,5.5,3.9,11.2,5.2,16.9c-20.9,4.7-40,13.1-58.6,24.5c-5.7,3.5-7.4,5.3-6.7,8.5
				c-4.3,1.1-12,2.3-12.4,3.2c-4,8.7-19,10.3-24.4,17.2c-10.4,13.2-5.8,23.3-21.9,33.2 M58.7,330.7l-1.9-0.7
				c0.9-0.7,1.8-1.2,2.8-1.7c0.4-0.2,1.2,0.4,1.7,0.6 M106.8,566.6c-1.2,0.3-2.5,0.4-3.8,0.5l1.4-1.8l3.7-0.3
				C107.7,565.6,107.3,566.5,106.8,566.6z M185.2,439.8c0.8,0.4,1.5,0.9,2.1,1.5l-1.1,1.8c-0.7-0.6-1.3-1.2-2-1.8
				C184.5,440.8,184.9,439.7,185.2,439.8L185.2,439.8z"/>
		</g>
		<g id="E">
			<path class="st0" d="M373.8,843.9c-6-4.1-8.4-11.9-13.3-18.4c-1.8-2.3,0-7.1-0.3-10.7c-0.4-4.6,5.5-10.4-2.5-13.5
				c0.4-8-0.3-16.3,1.5-23.9c1.1-4.5,1-7.1-1.5-10.9c-1.7-2.6-0.9-6.8,3.6-2.2c0.7-0.9,2-1.8,2-2.7c0.2-4.7,0-9.3,0.1-14
				c0.1-4.9,3-7.5,7.5-7.5c2.2,0,4.6,3,6.4,2.6c2.1-0.5,3.6-3.5,5.6-5c2.3-1.7,2.4-1.4,12.3,6.5c-1-0.2-1.6-1.1-2.1-1
				c-1.3,0.1-2.7,0.4-4,0.7c0.2,0.7,0.4,2,0.5,2c2,0,3.9-0.5,5.6-1.7c3.1,0,5.4,2,5.7,6.3c0.9,14.6,2,29.2,3.1,43.8
				c0.1,2.5,0.4,5,0.9,7.4c1.2,4.3,2.7,8.6,4.1,12.8c-6.2,4.6,2.6,7.4,1.5,12c-1.2,4.9-0.3,10.3-0.3,15.5c0,4.4-2,5.3-5.7,3.2
				c-1-0.5-2.1-0.8-3.3-1c0.1,1.4-0.3,3.2,0.4,4.1c2.6,3.2,5.9,5.8,8.4,9.1c0.7,0.9,1.3,6.2-3.3,2.5c-0.5-0.4-1.4-0.2-2.2-0.3
				c-0.2,6.6-10.1,9.3-7,17.5c0.6,1.6-1.1,4.1-1.7,6.2c-1.4-1.5-3.8-2.8-4.2-4.5c-2.2-10.9-12.3-16.5-16.7-25.8
				C373.9,850.9,373.4,848.5,373.8,843.9c0,0.1-1.3,1.9-1,2.2c1.4,1.2,2.9,2.3,4.4,3.1c0.6-1.2,1.8-2.6,1.5-3.4
				C378.2,844.3,376.7,843.4,373.8,843.9z M366,823.1l-1.1-2c-0.3,0.3-1,0.8-1,1c0.3,0.7,0.6,1.4,1,2.1L366,823.1z"/>
			<path class="st0" d="M534.8,799.8c1-15.1-2.2-26.4-7-37.4c-3-6.9-2-11,4.5-15c0.7-0.4,2.6,0.1,3.2,0.9c2.8,3.5,5.1,7.3,7.8,10.7
				c2.2,2.7,5.5,2.1,6.5-1.3c1.7-5.6,2.3-11.5,4.1-17c0.8-2.6,2.8-6,5-6.7s5.7,0.9,8.1,2.3c1.3,0.8,2.2,3.4,2.2,5.2
				c0.1,8.7,3,16,7.5,23.5c4,6.5,3.2,14.7,0.1,21.8c-1.2,2.8-1.2,4.2,0.4,6.6c1.2,2.2,1.7,4.7,1.3,7.1c-0.5,3.3-3,6.5-2.7,9.6
				c0.2,2.7,6.1,0.9,6.7,6.4c0.3,3.2,3.1,3.7-2,5c-3,0.8-3.1,10.8,0,11.7c7.7,2.1,3.2,4.1,1.9,8.1c-1.7,5.2-0.5,11.3-0.6,17
				c0,3.6,0.6,7.4-0.2,10.9c-0.5,2-3.2,4-5.4,4.8c-1.2,0.4-3.7-1.3-4.9-2.7c-2.8-3.4-5.1-7.2-7.9-10.7c-1-1.3,1.4-6.2-3.2-3.6
				c-2.4,1.4-5.5,3.7-2.3,7.4c0.7,0.8,2,1.6,1.9,2.3c-0.2,2.4-0.6,4.9-1.2,7.3c-1.7-1.7-4.9-3.7-4.7-5.1c0.9-6-1.6-11.1-4.4-15.5
				c-2.9-4.6-0.9-11.7-7.5-14.2c-0.4-0.2-1-0.8-0.9-1.1C543.8,823.6,530.7,811.6,534.8,799.8z M539.3,790.3
				c-0.4,0.4-0.8,0.8-1.1,1.1c0.7,0.4,1.4,0.8,2.1,1c0.3,0.1,0.7-0.6,1-1L539.3,790.3z"/>
			<path class="st0" d="M475.9,746.2c0.5,0.2,5.2,0.4,5.7,1.9c2,6.2,13.5,6.6,9.7,16c-1.7,4.3,4.4,8.1,0.8,12.6
				c4.6,4.3,1.2,9.8,2.3,14.7c0.9,4.3,0.8,9.9,3.5,12.4c4.8,4.3,0.7,10,4,14.2c3.5,4.5-1.4,2.4-2.8,3.4c-0.5,0.3,0,2.1,0.1,3.2
				c0.5,4.3-5.4,8.7,0.3,12.9c4.6,3.3,6.2,6.8,0.6,10.9c-2.8,2-3.5,4-1.1,7.6c2.9,4.4,3.1,9.4-1.4,13.7c-1.2,1.2-1.3,4-2.6,4.5
				c-3.5,1.5-7.6,3.4-11,2.9c-3-0.4-4.5-4.1-5.6-8c-3.1-10.6-6-21.6-14.4-29.9c-4.4-4.4-0.3-12.6-6.9-16.6c-0.7-0.4,1.1-4.7,1.7-7.2
				c-3.3-0.3-4.3-1.6-5.4-5.3c-3.9-13.4-4.4-26.4,0.3-39.6c1.4-4.1,1.8-8.6,3.2-12.7C460.3,748.2,463.4,746.1,475.9,746.2z
				 M494.9,813.8c0.4,0.4,0.8,0.8,1.1,1.1c0.4-0.7,0.7-1.4,1-2.1c0-0.3-0.6-0.7-1-1C495.7,812.4,495.3,813.1,494.9,813.8z"/>
		</g>
		<g id="E-2">
			<path class="st0" d="M373.8,110.1c-6-4.1-8.4-11.9-13.3-18.4c-1.8-2.3,0-7.1-0.3-10.7c-0.4-4.5,5.5-10.4-2.5-13.5
				c0.4-8-0.3-16.3,1.5-23.9c1.1-4.5,1-7.1-1.5-10.9c-1.7-2.6-0.9-6.8,3.6-2.2c0.7-0.9,2-1.8,2-2.7c0.2-4.7,0-9.3,0.1-14
				c0.1-4.9,3-7.5,7.5-7.5c2.2,0,4.6,3,6.4,2.6c2.1-0.5,3.6-3.5,5.6-5c2.3-1.7,2.4-1.4,12.3,6.5c-1-0.2-1.6-1.1-2.1-1
				c-1.3,0.1-2.7,0.4-4,0.7c0.2,0.7,0.4,2,0.5,2c2,0,3.9-0.5,5.6-1.6c3.1,0,5.4,2,5.7,6.3c0.9,14.6,2,29.2,3.1,43.8
				c0.1,2.5,0.4,5,0.9,7.4c1.2,4.3,2.7,8.6,4.1,12.8c-6.2,4.6,2.6,7.4,1.5,12c-1.2,4.9-0.3,10.3-0.3,15.5c0,4.4-2,5.3-5.7,3.1
				c-1-0.5-2.1-0.8-3.3-1c0.1,1.4-0.3,3.2,0.4,4.1c2.6,3.2,5.9,5.8,8.4,9.1c0.7,0.9,1.3,6.2-3.3,2.5c-0.5-0.4-1.4-0.2-2.2-0.3
				c-0.2,6.6-10.1,9.3-7,17.5c0.6,1.6-1.1,4.1-1.7,6.2c-1.4-1.5-3.8-2.8-4.2-4.5c-2.2-10.9-12.3-16.5-16.7-25.8
				C373.9,117,373.4,114.6,373.8,110.1c0,0.1-1.3,1.9-1,2.2c1.4,1.2,2.9,2.3,4.4,3.1c0.6-1.2,1.8-2.6,1.5-3.4
				C378.2,110.5,376.7,109.6,373.8,110.1z M366,89.3l-1.1-2c-0.3,0.3-1,0.8-1,1c0.2,0.7,0.6,1.4,1,2.1L366,89.3z"/>
			<path class="st0" d="M534.8,66c1-15.1-2.2-26.4-7-37.4c-3-6.9-2-11,4.5-15c0.7-0.4,2.6,0.1,3.2,0.9c2.8,3.5,5.1,7.3,7.8,10.7
				c2.2,2.7,5.5,2.1,6.5-1.3c1.7-5.6,2.3-11.5,4.1-17c0.8-2.6,2.8-6,5-6.7s5.7,0.9,8.1,2.3c1.3,0.8,2.2,3.4,2.2,5.1
				c0.1,8.7,3,16,7.5,23.5c4,6.5,3.2,14.7,0.1,21.8c-1.2,2.8-1.2,4.2,0.4,6.6c1.2,2.2,1.7,4.7,1.3,7.1c-0.5,3.3-3,6.5-2.7,9.6
				c0.2,2.7,6.1,0.9,6.7,6.4c0.3,3.2,3.1,3.7-2,5c-3,0.8-3.1,10.8,0,11.7c7.7,2.1,3.2,4.1,1.9,8.1c-1.7,5.2-0.5,11.3-0.6,17
				c0,3.6,0.6,7.5-0.2,10.9c-0.5,2-3.2,4-5.4,4.8c-1.2,0.4-3.7-1.3-4.9-2.7c-2.8-3.4-5.1-7.2-7.9-10.7c-1-1.3,1.4-6.2-3.2-3.6
				c-2.4,1.4-5.5,3.7-2.3,7.4c0.7,0.8,2,1.6,1.9,2.3c-0.2,2.4-0.6,4.9-1.2,7.3c-1.7-1.7-4.9-3.7-4.7-5.1c0.9-6-1.6-11.1-4.4-15.5
				c-2.9-4.6-0.9-11.7-7.5-14.2c-0.4-0.2-1-0.8-0.9-1.1C543.8,89.8,530.7,77.8,534.8,66z M539.3,56.5c-0.4,0.4-0.8,0.8-1.1,1.1
				c0.7,0.4,1.4,0.8,2.1,1c0.3,0.1,0.7-0.6,1-1L539.3,56.5z"/>
			<path class="st0" d="M475.9,12.3c0.5,0.2,5.2,0.4,5.7,1.9c2,6.2,13.5,6.6,9.7,16c-1.7,4.3,4.4,8.1,0.8,12.6
				c4.6,4.3,1.2,9.8,2.3,14.7c0.9,4.3,0.8,9.9,3.5,12.4c4.8,4.3,0.7,10,4,14.2c3.5,4.5-1.4,2.5-2.8,3.4c-0.5,0.3,0,2.1,0.1,3.2
				c0.5,4.3-5.4,8.7,0.3,12.9c4.6,3.3,6.2,6.8,0.6,10.9c-2.8,2-3.5,4-1.1,7.6c2.9,4.4,3.1,9.5-1.4,13.7c-1.2,1.2-1.3,4-2.6,4.5
				c-3.5,1.5-7.6,3.4-11,2.9c-3-0.4-4.5-4.1-5.6-8c-3.1-10.6-6-21.6-14.4-29.9c-4.4-4.4-0.3-12.6-6.9-16.6c-0.7-0.4,1.1-4.7,1.7-7.2
				c-3.3-0.3-4.3-1.6-5.4-5.3c-3.9-13.4-4.4-26.4,0.3-39.6c1.4-4.1,1.8-8.6,3.2-12.7C460.3,14.4,463.4,12.3,475.9,12.3z M494.9,79.9
				c0.4,0.4,0.8,0.8,1.1,1.1c0.4-0.7,0.7-1.4,1-2.1c0-0.3-0.6-0.7-1-1C495.7,78.6,495.3,79.3,494.9,79.9z"/>
		</g>
	</g>
</g>
</svg>
