<?xml version="1.0" encoding="utf-8"?>
<!-- Generator: Adobe Illustrator 24.0.1, SVG Export Plug-In . SVG Version: 6.00 Build 0)  -->
<svg version="1.1" id="Laag_2_1_" xmlns="http://www.w3.org/2000/svg" xmlns:xlink="http://www.w3.org/1999/xlink" x="0px" y="0px"
	 viewBox="0 0 100 100" style="enable-background:new 0 0 100 100;" xml:space="preserve">
<style type="text/css">
	.st0{display:none;}
	.st1{display:inline;fill:none;stroke:#000000;stroke-width:1.1592;stroke-miterlimit:10;}
	.st2{display:inline;}
	.st3{fill:none;stroke:#000000;stroke-miterlimit:10;}
	.st4{fill:#00FF00;}
	.st5{enable-background:new    ;}
	.st6{display:inline;fill:none;stroke:#000000;stroke-width:4.5117;stroke-miterlimit:10;}
</style>
<g id="_x34_" class="st0">
	<polygon class="st1" points="30,24.6 24.2,31.6 25.1,31.6 26.5,35.1 27.6,31.6 30,33.9 32.3,31.6 33.4,35.1 34.8,31.6 35.8,31.6 	
		"/>
	<rect x="29.3" y="29.7" transform="matrix(0.7071 -0.7071 0.7071 0.7071 -12.686 30.0325)" class="st2" width="1.2" height="1.2"/>
</g>
<g id="_x33_" class="st0">
	<g class="st2">
		<polyline class="st3" points="61.5,25 61.5,29 66,33.5 		"/>
		<polygon class="st3" points="58.5,32.5 62.5,36.5 62.5,32.5 		"/>
	</g>
	<g class="st2">
		<polyline class="st3" points="67,36.5 67,32.5 62.5,28 		"/>
		<polygon class="st3" points="70,29 66,25 66,29 		"/>
	</g>
</g>
<g id="_x32_">
	<g>
		<path class="st4" d="M48.9,40.4L10.2,1.8h77.2L48.9,40.4z M28.2,9.2L48.9,30L69.6,9.2H28.2z"/>
	</g>
	<g>
		<path class="st4" d="M0.7,88.7V11.3L39.2,50L0.7,88.7z M8.1,29.3v41.5L28.8,50L8.1,29.3z"/>
	</g>
	<g>
		
			<rect x="-19.3" y="49.1" transform="matrix(0.7068 -0.7074 0.7074 0.7068 -21.0808 49.2711)" class="st4" width="136.3" height="1.9"/>
	</g>
	<g>
		
			<rect x="47.9" y="-18.2" transform="matrix(0.7071 -0.7071 0.7071 0.7071 -20.983 49.2009)" class="st4" width="1.9" height="136.3"/>
	</g>
	<g>
		<rect x="34" y="72.3" class="st4" width="14.8" height="14.8"/>
	</g>
	<g>
		<path class="st4" d="M60,88c-2.6,0-4.6-2.1-4.6-4.6c0-2.6,2.1-4.6,4.6-4.6s4.6,2.1,4.6,4.6C64.6,86,62.6,88,60,88z M60,80.6
			c-1.5,0-2.8,1.2-2.8,2.8c0,1.5,1.2,2.8,2.8,2.8s2.8-1.2,2.8-2.8C62.8,81.9,61.5,80.6,60,80.6z"/>
	</g>
	<g>
		<polygon class="st4" points="79.1,42.6 70.5,42.6 66.3,50 70.5,57.4 79.1,57.4 83.4,50 		"/>
	</g>
	<g class="st5">
		<path class="st4" d="M83.7,57.5c0-1.1,0.3-2.1,0.9-2.9c0.6-0.8,1.4-1.2,2.5-1.2c1,0,1.8,0.4,2.5,1.1c0.7,0.7,1,1.8,1,3.1
			s-0.3,2.4-1,3.1c-0.7,0.7-1.5,1.1-2.5,1.1s-1.8-0.4-2.4-1.1C84,60,83.7,58.9,83.7,57.5z M87.1,54.7c-0.5,0-0.9,0.2-1.2,0.6
			s-0.5,1.2-0.5,2.3c0,1,0.2,1.7,0.5,2.2c0.3,0.4,0.7,0.6,1.2,0.6s0.9-0.2,1.2-0.6s0.5-1.2,0.5-2.3c0-1-0.2-1.8-0.5-2.2
			C88,54.9,87.6,54.7,87.1,54.7z M87.1,70.2l8.7-16.8h1.6l-8.7,16.8H87.1z M94,65.8c0-1.1,0.3-2.1,0.9-2.9s1.4-1.2,2.5-1.2
			c1,0,1.8,0.4,2.5,1.1c0.7,0.7,1,1.8,1,3.1s-0.3,2.4-1,3.1s-1.5,1.1-2.5,1.1S95.6,69.7,95,69C94.3,68.4,94,67.3,94,65.8z
			 M97.4,63.1c-0.5,0-0.9,0.2-1.2,0.6c-0.3,0.4-0.5,1.2-0.5,2.3c0,1,0.2,1.7,0.5,2.2s0.7,0.6,1.2,0.6s0.9-0.2,1.2-0.6
			s0.5-1.2,0.5-2.3c0-1-0.2-1.8-0.5-2.2C98.3,63.3,97.9,63.1,97.4,63.1z"/>
	</g>
</g>
<g id="_x31_" class="st0">
	<polyline class="st6" points="20.6,10 20.6,64.1 38.7,41.5 79.3,41.5 79.3,5.4 52.2,32.5 	"/>
	<polygon class="st6" points="45.4,52.8 45.4,93.4 77,52.8 	"/>
	<line class="st6" x1="31.9" y1="61.8" x2="31.9" y2="97.9"/>
	<circle class="st2" cx="34.2" cy="19" r="4.5"/>
	<circle class="st2" cx="45.4" cy="25.7" r="2.3"/>
</g>
</svg>
