<?xml version="1.0" encoding="utf-8"?>
<!-- Generator: Adobe Illustrator 24.0.1, SVG Export Plug-In . SVG Version: 6.00 Build 0)  -->
<svg version="1.1" id="Laag_2_1_" xmlns="http://www.w3.org/2000/svg" xmlns:xlink="http://www.w3.org/1999/xlink" x="0px" y="0px"
	 viewBox="0 0 100 100" style="enable-background:new 0 0 100 100;" xml:space="preserve">
<style type="text/css">
	.st0{display:none;}
	.st1{display:inline;fill:none;stroke:#000000;stroke-width:1.1592;stroke-miterlimit:10;}
	.st2{display:inline;}
	.st3{fill:none;stroke:#000000;stroke-miterlimit:10;}
	.st4{display:inline;fill:none;stroke:#000000;stroke-miterlimit:10;}
	.st5{display:inline;fill:none;stroke:#000000;stroke-width:0.25;stroke-miterlimit:10;}
	.st6{font-family:'ArialMT';}
	.st7{font-size:3px;}
	.st8{fill:#00FF00;}
</style>
<g id="_x34_" class="st0">
	<polygon class="st1" points="30,24.6 24.2,31.6 25.1,31.6 26.5,35.1 27.6,31.6 30,33.9 32.3,31.6 33.4,35.1 34.8,31.6 35.8,31.6 	
		"/>
	<rect x="29.3" y="29.7" transform="matrix(0.7071 -0.7071 0.7071 0.7071 -12.686 30.0325)" class="st2" width="1.2" height="1.2"/>
</g>
<g id="_x33_" class="st0">
	<g class="st2">
		<polyline class="st3" points="61.5,25 61.5,29 66,33.5 		"/>
		<polygon class="st3" points="58.5,32.5 62.5,36.5 62.5,32.5 		"/>
	</g>
	<g class="st2">
		<polyline class="st3" points="67,36.5 67,32.5 62.5,28 		"/>
		<polygon class="st3" points="70,29 66,25 66,29 		"/>
	</g>
</g>
<g id="_x32_" class="st0">
	<polygon class="st4" points="10,25 18,25 14,29 	"/>
	<polygon class="st4" points="8,35 8,27 12,31 	"/>
	<line class="st5" x1="7.5" y1="37.5" x2="20.5" y2="24.5"/>
	<line class="st5" x1="20.5" y1="37.5" x2="7.5" y2="24.5"/>
	<rect x="12" y="34" class="st2" width="2" height="2"/>
	<circle class="st5" cx="15.5" cy="35.5" r="0.5"/>
	<polygon class="st2" points="18.1,30 16.9,30 16.3,31 16.9,32 18.1,32 18.7,31 	"/>
	<text transform="matrix(1 0 0 1 18.5181 33.6392)" class="st2 st6 st7">%</text>
</g>
<g id="_x31_">
	<g>
		<polygon class="st8" points="18.3,70.5 18.3,10 22.9,10 22.9,57.7 37.6,39.2 77,39.2 77,10.8 53.8,34.1 50.6,30.9 81.6,0 
			81.6,43.8 39.8,43.8 		"/>
	</g>
	<g>
		<path class="st8" d="M43.1,100V50.5h38.5L43.1,100z M47.7,55.1v31.8l24.7-31.8C72.4,55.1,47.7,55.1,47.7,55.1z"/>
	</g>
	<g>
		<rect x="29.6" y="61.8" class="st8" width="4.5" height="36.1"/>
	</g>
	<g>
		<circle class="st8" cx="34.2" cy="19" r="4.5"/>
	</g>
	<g>
		<circle class="st8" cx="45.4" cy="25.7" r="2.3"/>
	</g>
</g>
</svg>
